<svg width="1400" height="520" viewBox="0 0 1400 520" fill="none" xmlns="http://www.w3.org/2000/svg">
  <defs>
    <linearGradient id="bg" x1="0" y1="0" x2="1" y2="1">
      <stop offset="0%" stop-color="#0B1B3B"/>
      <stop offset="55%" stop-color="#1E3A8A"/>
      <stop offset="100%" stop-color="#0EA5E9"/>
    </linearGradient>
    <linearGradient id="accent" x1="0" y1="0" x2="1" y2="0">
      <stop offset="0%" stop-color="#F59E0B"/>
      <stop offset="100%" stop-color="#F97316"/>
    </linearGradient>
  </defs>
  <rect width="1400" height="520" rx="32" fill="url(#bg)"/>
  <g opacity="0.25">
    <circle cx="1160" cy="120" r="110" fill="#93C5FD"/>
    <circle cx="120" cy="420" r="140" fill="#22D3EE"/>
    <circle cx="980" cy="420" r="160" fill="#38BDF8"/>
  </g>
  <rect x="90" y="90" width="1220" height="340" rx="24" fill="#0F172A" opacity="0.4"/>
  <rect x="140" y="140" width="520" height="12" rx="6" fill="url(#accent)"/>
  <text x="140" y="230" fill="#FFFFFF" font-family="Georgia, 'Times New Roman', serif" font-size="48" font-weight="600">
    Global Finance Digest
  </text>
  <text x="140" y="280" fill="#E2E8F0" font-family="Arial, sans-serif" font-size="20">
    Twice-daily bilingual headlines · NY 08:00 & BJ 08:00
  </text>
  <text x="140" y="320" fill="#CBD5F5" font-family="Arial, sans-serif" font-size="16">
    Curated from mainstream financial media · Email delivery via GitHub Actions
  </text>
  <g>
    <rect x="900" y="170" width="300" height="190" rx="16" fill="#FFFFFF" opacity="0.94"/>
    <rect x="930" y="200" width="240" height="12" rx="6" fill="#E2E8F0"/>
    <rect x="930" y="224" width="210" height="10" rx="5" fill="#E2E8F0"/>
    <rect x="930" y="248" width="260" height="10" rx="5" fill="#E2E8F0"/>
    <rect x="930" y="280" width="180" height="10" rx="5" fill="#E2E8F0"/>
    <rect x="930" y="306" width="120" height="34" rx="10" fill="#2563EB"/>
  </g>
</svg>
